# Blender v2.78 (sub 0) OBJ File: ''
# www.blender.org
mtllib asteroide.mtl
o Icosphere
v 0.003653 -0.947852 -0.014772
v 0.727261 -0.395071 0.510954
v -0.272735 -0.395071 0.835877
v -0.830587 -0.285007 0.049917
v -0.272735 -0.395071 -0.865421
v 0.727261 -0.395071 -0.540497
v 0.280041 0.499368 0.835877
v -0.719954 0.499368 0.510954
v -0.777246 0.454995 -0.362978
v 0.280041 0.499368 -0.865421
v 0.841660 0.474894 0.012107
v 0.003653 1.052148 -0.014772
v -0.158802 -0.798506 0.485223
v 0.428976 -0.798506 0.294240
v 0.266522 -0.473589 0.794240
v 0.854301 -0.473588 -0.014772
v 0.345867 -0.674571 -0.370215
v -0.383774 -0.742215 0.135144
v -0.684536 -0.473588 0.485225
v -0.158802 -0.798506 -0.514767
v -0.684536 -0.473588 -0.514769
v 0.266522 -0.473589 -0.823783
v 0.742602 0.067311 0.324741
v 0.954711 0.052148 -0.323784
v -0.097415 0.233731 0.645564
v 0.591439 0.052148 0.794245
v -0.947404 0.052148 0.294241
v -0.820879 0.096486 0.617558
v -0.584132 0.052148 -0.823788
v -0.906625 0.082567 -0.230534
v 0.591439 0.052148 -0.823788
v 0.003653 0.052148 -1.014772
v 0.691843 0.577885 0.485225
v -0.259215 0.577886 0.794240
v -0.671457 0.716351 0.024466
v -0.440432 0.378288 -0.680742
v 0.676627 0.539829 -0.593499
v -0.017675 0.628438 0.622266
v 0.529383 0.902800 -0.014772
v -0.421669 0.902803 0.294240
v -0.421669 0.902803 -0.323783
v 0.247898 0.868422 -0.423815
vn 0.1024 -0.9435 0.3151
vn 0.7002 -0.6617 0.2680
vn -0.4254 -0.8957 0.1293
vn -0.4956 -0.8631 -0.0968
vn 0.3193 -0.8746 -0.3650
vn 0.9723 0.0588 0.2262
vn 0.1118 0.2592 0.9593
vn -0.9049 -0.4061 0.1277
vn -0.5746 -0.3304 -0.7488
vn 0.5346 -0.3304 -0.7779
vn 0.9469 0.0926 0.3079
vn -0.0959 0.3127 0.9450
vn -0.9594 -0.2672 -0.0900
vn -0.3066 -0.1256 -0.9435
vn 0.8026 -0.1256 -0.5831
vn 0.1363 0.9205 0.3662
vn -0.4713 0.6617 0.5831
vn -0.7564 0.6191 -0.2111
vn -0.2827 0.7258 -0.6271
vn 0.8024 0.5757 -0.1569
vn 0.2639 0.9289 -0.2597
vn 0.4609 0.7999 -0.3844
vn 0.3302 0.7360 -0.5910
vn -0.0157 0.9086 -0.4175
vn -0.0939 0.5624 -0.8215
vn -0.5379 0.4873 -0.6878
vn -0.3313 0.9435 0.0000
vn -0.5982 0.8014 0.0000
vn -0.7245 0.6535 0.2192
vn 0.1118 0.8257 0.5529
vn 0.1750 0.8506 0.4959
vn 0.1006 0.9074 0.4080
vn 0.2292 0.8069 0.5444
vn 0.1575 0.8506 0.5016
vn 0.7978 0.5900 0.1242
vn 0.8947 0.3990 -0.2010
vn 0.8016 0.1350 -0.5824
vn 0.5213 0.2882 -0.8032
vn -0.2922 0.4605 -0.8382
vn -0.2704 0.4841 -0.8322
vn -0.5180 0.5246 -0.6757
vn -0.9409 0.3373 0.0294
vn -0.9294 0.3654 -0.0510
vn -0.9051 0.4145 0.0946
vn -0.5340 0.3388 0.7746
vn 0.0367 -0.3817 0.9235
vn -0.1332 -0.4452 0.8855
vn 0.5746 0.3304 0.7488
vn 0.9519 -0.0017 0.3064
vn 0.9533 -0.0001 0.3019
vn 0.3066 0.1256 -0.9435
vn 0.3035 -0.1876 -0.9342
vn 0.0247 -0.3304 -0.9435
vn -0.8681 0.1314 -0.4786
vn -0.8757 -0.1093 -0.4704
vn -0.9421 -0.3035 -0.1423
vn -0.8997 0.3074 0.3099
vn -0.8743 -0.2980 0.3830
vn -0.5803 -0.3133 0.7517
vn -0.2715 -0.2749 0.9223
vn -0.1813 0.1121 0.9770
vn 0.5346 -0.3304 0.7779
vn 0.9505 0.0073 0.3107
vn 0.9505 0.0012 0.3108
vn 0.9050 -0.3304 -0.2680
vn 0.4016 -0.8092 -0.4288
vn 0.3296 -0.8405 -0.4301
vn -0.0385 -0.6617 -0.7488
vn -0.4089 -0.6617 -0.6284
vn -0.5227 -0.8457 -0.1077
vn -0.7187 -0.6938 0.0458
vn -0.7072 -0.7037 -0.0676
vn -0.5154 -0.8340 0.1971
vn -0.4089 -0.6617 0.6284
vn 0.4996 -0.8309 -0.2448
vn 0.4871 -0.8455 -0.2186
vn 0.4606 -0.8604 -0.2181
vn -0.0385 -0.6617 0.7488
vn 0.1876 -0.7947 0.5773
vn 0.4713 -0.6617 0.5831
usemtl None
s off
f 1//1 14//1 13//1
f 2//2 14//2 16//2
f 1//3 13//3 18//3
f 1//4 18//4 20//4
f 1//5 20//5 17//5
f 2//6 16//6 23//6
f 3//7 15//7 25//7
f 4//8 19//8 27//8
f 5//9 21//9 29//9
f 6//10 22//10 31//10
f 2//11 23//11 26//11
f 3//12 25//12 28//12
f 4//13 27//13 30//13
f 5//14 29//14 32//14
f 6//15 31//15 24//15
f 7//16 33//16 38//16
f 8//17 34//17 40//17
f 9//18 35//18 41//18
f 10//19 36//19 42//19
f 11//20 37//20 39//20
f 39//21 42//21 12//21
f 39//22 37//22 42//22
f 37//23 10//23 42//23
f 42//24 41//24 12//24
f 42//25 36//25 41//25
f 36//26 9//26 41//26
f 41//27 40//27 12//27
f 41//28 35//28 40//28
f 35//29 8//29 40//29
f 40//30 38//30 12//30
f 40//31 34//31 38//31
f 34//32 7//32 38//32
f 38//33 39//33 12//33
f 38//34 33//34 39//34
f 33//35 11//35 39//35
f 24//36 37//36 11//36
f 24//37 31//37 37//37
f 31//38 10//38 37//38
f 32//39 36//39 10//39
f 32//40 29//40 36//40
f 29//41 9//41 36//41
f 30//42 35//42 9//42
f 30//43 27//43 35//43
f 27//44 8//44 35//44
f 28//45 34//45 8//45
f 28//46 25//46 34//46
f 25//47 7//47 34//47
f 26//48 33//48 7//48
f 26//49 23//49 33//49
f 23//50 11//50 33//50
f 31//51 32//51 10//51
f 31//52 22//52 32//52
f 22//53 5//53 32//53
f 29//54 30//54 9//54
f 29//55 21//55 30//55
f 21//56 4//56 30//56
f 27//57 28//57 8//57
f 27//58 19//58 28//58
f 19//59 3//59 28//59
f 25//60 26//60 7//60
f 25//61 15//61 26//61
f 15//62 2//62 26//62
f 23//63 24//63 11//63
f 23//64 16//64 24//64
f 16//65 6//65 24//65
f 17//66 22//66 6//66
f 17//67 20//67 22//67
f 20//68 5//68 22//68
f 20//69 21//69 5//69
f 20//70 18//70 21//70
f 18//71 4//71 21//71
f 18//72 19//72 4//72
f 18//73 13//73 19//73
f 13//74 3//74 19//74
f 16//75 17//75 6//75
f 16//76 14//76 17//76
f 14//77 1//77 17//77
f 13//78 15//78 3//78
f 13//79 14//79 15//79
f 14//80 2//80 15//80
