# Blender v2.78 (sub 0) OBJ File: ''
# www.blender.org
mtllib asteroide.mtl
o Icosphere
v 0.003653 -0.947852 -0.014772
v 0.428976 -0.798506 0.294240
v -0.158802 -0.798506 0.485223
v 0.727261 -0.395071 0.510954
v 0.854301 -0.473588 -0.014772
v -0.383774 -0.742215 0.135144
v -0.158802 -0.798506 -0.514767
v 0.345867 -0.674571 -0.370215
v 0.742602 0.067311 0.324741
v -0.272735 -0.395071 0.835877
v 0.266522 -0.473589 0.794240
v -0.097415 0.233731 0.645564
v -0.830587 -0.285007 0.049917
v -0.684536 -0.473588 0.485225
v -0.947404 0.052148 0.294241
v -0.272735 -0.395071 -0.865421
v -0.684536 -0.473588 -0.514769
v -0.584132 0.052148 -0.823788
v 0.727261 -0.395071 -0.540497
v 0.266522 -0.473589 -0.823783
v 0.591439 0.052148 -0.823788
v 0.591439 0.052148 0.794245
v -0.820879 0.096486 0.617558
v -0.906625 0.082567 -0.230534
v 0.003653 0.052148 -1.014772
v 0.954711 0.052148 -0.323784
v 0.280041 0.499368 0.835877
v 0.691843 0.577885 0.485225
v -0.017675 0.628438 0.622266
v -0.719954 0.499368 0.510954
v -0.259215 0.577886 0.794240
v -0.421669 0.902803 0.294240
v -0.777246 0.454995 -0.362978
v -0.671457 0.716351 0.024466
v -0.421669 0.902803 -0.323783
v 0.280041 0.499368 -0.865421
v -0.440432 0.378288 -0.680742
v 0.247898 0.868422 -0.423815
v 0.841660 0.474894 0.012107
v 0.676627 0.539829 -0.593499
v 0.529383 0.902800 -0.014772
v 0.003653 1.052148 -0.014772
vn 0.1024 -0.9435 0.3151
vn 0.7002 -0.6617 0.2680
vn -0.4254 -0.8957 0.1293
vn -0.4956 -0.8631 -0.0968
vn 0.3193 -0.8746 -0.3650
vn 0.9723 0.0588 0.2262
vn 0.1118 0.2592 0.9593
vn -0.9049 -0.4061 0.1277
vn -0.5746 -0.3304 -0.7488
vn 0.5346 -0.3304 -0.7779
vn 0.9469 0.0926 0.3079
vn -0.0959 0.3127 0.9450
vn -0.9594 -0.2672 -0.0900
vn -0.3066 -0.1256 -0.9435
vn 0.8026 -0.1256 -0.5831
vn 0.1363 0.9205 0.3662
vn -0.4713 0.6617 0.5831
vn -0.7564 0.6191 -0.2111
vn -0.2827 0.7258 -0.6271
vn 0.8024 0.5757 -0.1569
vn 0.2639 0.9289 -0.2597
vn 0.4609 0.7999 -0.3844
vn 0.3302 0.7360 -0.5910
vn -0.0157 0.9086 -0.4175
vn -0.0939 0.5624 -0.8215
vn -0.5379 0.4873 -0.6878
vn -0.3313 0.9435 0.0000
vn -0.5982 0.8014 0.0000
vn -0.7245 0.6535 0.2192
vn 0.1118 0.8257 0.5529
vn 0.1750 0.8506 0.4959
vn 0.1006 0.9074 0.4080
vn 0.2292 0.8069 0.5444
vn 0.1575 0.8506 0.5016
vn 0.7978 0.5900 0.1242
vn 0.8947 0.3990 -0.2010
vn 0.8016 0.1350 -0.5824
vn 0.5213 0.2882 -0.8032
vn -0.2922 0.4605 -0.8382
vn -0.2704 0.4841 -0.8322
vn -0.5180 0.5246 -0.6757
vn -0.9409 0.3373 0.0294
vn -0.9294 0.3654 -0.0510
vn -0.9051 0.4145 0.0946
vn -0.5340 0.3387 0.7746
vn 0.0367 -0.3817 0.9235
vn -0.1332 -0.4452 0.8855
vn 0.5746 0.3304 0.7488
vn 0.9519 -0.0017 0.3064
vn 0.9509 0.0060 0.3093
vn 0.9520 -0.0016 0.3062
vn 0.9532 0.0003 0.3024
vn 0.3066 0.1256 -0.9435
vn 0.3035 -0.1876 -0.9342
vn 0.0247 -0.3304 -0.9435
vn -0.8681 0.1314 -0.4786
vn -0.8757 -0.1093 -0.4704
vn -0.9421 -0.3035 -0.1423
vn -0.8997 0.3074 0.3099
vn -0.8743 -0.2980 0.3830
vn -0.5803 -0.3133 0.7517
vn -0.2715 -0.2749 0.9223
vn -0.1813 0.1121 0.9770
vn 0.5346 -0.3304 0.7779
vn 0.9506 0.0069 0.3105
vn 0.9505 0.0012 0.3108
vn 0.9050 -0.3304 -0.2680
vn 0.4016 -0.8092 -0.4288
vn 0.3296 -0.8405 -0.4301
vn -0.0385 -0.6617 -0.7488
vn -0.4089 -0.6617 -0.6284
vn -0.5227 -0.8457 -0.1077
vn -0.7187 -0.6938 0.0458
vn -0.7072 -0.7037 -0.0676
vn -0.5154 -0.8340 0.1971
vn -0.4089 -0.6617 0.6284
vn 0.4996 -0.8309 -0.2448
vn 0.4871 -0.8455 -0.2186
vn 0.4606 -0.8604 -0.2181
vn -0.0385 -0.6617 0.7488
vn 0.1876 -0.7947 0.5773
vn 0.4713 -0.6617 0.5831
usemtl None
s 1
f 1//1 2//1 3//1
f 4//2 2//2 5//2
f 1//3 3//3 6//3
f 1//4 6//4 7//4
f 1//5 7//5 8//5
f 4//6 5//6 9//6
f 10//7 11//7 12//7
f 13//8 14//8 15//8
f 16//9 17//9 18//9
f 19//10 20//10 21//10
f 4//11 9//11 22//11
f 10//12 12//12 23//12
f 13//13 15//13 24//13
f 16//14 18//14 25//14
f 19//15 21//15 26//15
f 27//16 28//16 29//16
f 30//17 31//17 32//17
f 33//18 34//18 35//18
f 36//19 37//19 38//19
f 39//20 40//20 41//20
f 41//21 38//21 42//21
f 41//22 40//22 38//22
f 40//23 36//23 38//23
f 38//24 35//24 42//24
f 38//25 37//25 35//25
f 37//26 33//26 35//26
f 35//27 32//27 42//27
f 35//28 34//28 32//28
f 34//29 30//29 32//29
f 32//30 29//30 42//30
f 32//31 31//31 29//31
f 31//32 27//32 29//32
f 29//33 41//33 42//33
f 29//34 28//34 41//34
f 28//35 39//35 41//35
f 26//36 40//36 39//36
f 26//37 21//37 40//37
f 21//38 36//38 40//38
f 25//39 37//39 36//39
f 25//40 18//40 37//40
f 18//41 33//41 37//41
f 24//42 34//42 33//42
f 24//43 15//43 34//43
f 15//44 30//44 34//44
f 23//45 31//45 30//45
f 23//46 12//46 31//46
f 12//47 27//47 31//47
f 22//48 28//48 27//48
f 22//49 9//50 28//51
f 9//50 39//52 28//51
f 21//53 25//53 36//53
f 21//54 20//54 25//54
f 20//55 16//55 25//55
f 18//56 24//56 33//56
f 18//57 17//57 24//57
f 17//58 13//58 24//58
f 15//59 23//59 30//59
f 15//60 14//60 23//60
f 14//61 10//61 23//61
f 12//62 22//62 27//62
f 12//63 11//63 22//63
f 11//64 4//64 22//64
f 9//50 26//65 39//52
f 9//50 5//66 26//65
f 5//67 19//67 26//67
f 8//68 20//68 19//68
f 8//69 7//69 20//69
f 7//70 16//70 20//70
f 7//71 17//71 16//71
f 7//72 6//72 17//72
f 6//73 13//73 17//73
f 6//74 14//74 13//74
f 6//75 3//75 14//75
f 3//76 10//76 14//76
f 5//77 8//77 19//77
f 5//78 2//78 8//78
f 2//79 1//79 8//79
f 3//80 11//80 10//80
f 3//81 2//81 11//81
f 2//82 4//82 11//82
