# Blender v2.78 (sub 0) OBJ File: ''
# www.blender.org
mtllib disparo.mtl
o Cube.001
v -1.133524 0.376052 -0.000000
v -1.126602 0.350886 0.150277
v -0.600981 0.362391 0.155311
v -0.600981 0.388276 -0.000000
v -0.020488 0.362391 0.155311
v -0.020488 0.388276 -0.000000
v -1.119679 0.275568 0.275568
v -0.600981 0.284736 0.284736
v -0.020488 0.284736 0.284736
v -0.600981 0.362391 -0.155310
v -1.126602 0.350886 -0.150277
v -0.600981 0.284736 -0.284735
v -1.119679 0.275568 -0.275568
v -0.020488 0.362391 -0.155310
v -0.020488 0.284736 -0.284736
v -1.549710 0.316373 -0.135177
v -1.577401 0.339382 -0.000000
v -1.860246 0.248065 -0.125111
v -1.910684 0.266401 -0.000000
v -1.522019 0.248065 -0.248065
v -1.758053 0.210916 -0.210915
v -1.549710 0.316373 0.135178
v -1.522019 0.248065 0.248065
v -1.860246 0.248065 0.125111
v -1.758053 0.210915 0.210916
v -1.133525 -0.376052 -0.000000
v -0.600981 -0.388276 -0.000000
v -0.600981 -0.362391 0.155310
v -1.126602 -0.350886 0.150277
v -0.600981 -0.284736 0.284736
v -1.119679 -0.275568 0.275568
v -0.020488 -0.388276 -0.000000
v -0.020488 -0.362391 0.155310
v -0.020488 -0.284736 0.284736
v -1.549710 -0.316373 0.135178
v -1.577401 -0.339382 -0.000000
v -1.860246 -0.248065 0.125111
v -1.910684 -0.266400 -0.000000
v -1.522019 -0.248065 0.248065
v -1.758053 -0.210915 0.210915
v -1.549710 -0.316373 -0.135178
v -1.126602 -0.350886 -0.150277
v -1.522019 -0.248065 -0.248065
v -1.119679 -0.275568 -0.275568
v -1.860246 -0.248065 -0.125111
v -1.758053 -0.210915 -0.210915
v -0.600981 -0.362391 -0.155311
v -0.020488 -0.362391 -0.155311
v -0.600981 -0.284736 -0.284736
v -0.020488 -0.284736 -0.284736
v 1.115698 0.000000 0.376052
v 1.108423 0.150277 0.350886
v 0.567236 0.155310 0.362391
v 0.567236 0.000000 0.388276
v -0.020488 0.155310 0.362391
v -0.020488 -0.000000 0.388276
v 1.101149 0.275568 0.275568
v 0.567235 0.284736 0.284736
v 0.567236 -0.155311 0.362391
v 1.108423 -0.150277 0.350886
v 0.567236 -0.284736 0.284735
v 1.101149 -0.275568 0.275568
v -0.020488 -0.155310 0.362391
v 1.549308 -0.135178 0.316373
v 1.578405 0.000000 0.339382
v 1.875612 -0.125111 0.248065
v 1.928611 0.000000 0.266400
v 1.520211 -0.248065 0.248065
v 1.768230 -0.210916 0.210915
v 1.549308 0.135177 0.316373
v 1.520211 0.248065 0.248065
v 1.875612 0.125111 0.248065
v 1.768230 0.210915 0.210915
v -1.133525 -0.000000 -0.376052
v -1.126602 0.150277 -0.350886
v -0.600981 0.155311 -0.362391
v -0.600981 -0.000000 -0.388276
v -0.020488 0.155310 -0.362391
v -0.020488 -0.000000 -0.388276
v -0.600981 -0.155310 -0.362391
v -1.126602 -0.150277 -0.350886
v -0.020488 -0.155310 -0.362391
v -1.549710 -0.135177 -0.316373
v -1.577401 -0.000000 -0.339382
v -1.860246 -0.125111 -0.248065
v -1.910684 -0.000000 -0.266400
v -1.549710 0.135178 -0.316373
v -1.860246 0.125111 -0.248065
v -2.178694 -0.000000 -0.000000
v -2.111444 0.145244 -0.000000
v -2.048150 0.135178 -0.135177
v -2.111444 -0.000000 -0.145244
v -2.048150 -0.135177 -0.135177
v -2.111444 -0.145244 -0.000000
v -2.048150 -0.135177 0.135178
v -2.111444 -0.000000 0.145244
v -1.860246 -0.125111 0.248065
v -1.910684 -0.000000 0.266401
v -2.048150 0.135178 0.135178
v -1.860246 0.125111 0.248065
v -1.133524 -0.000000 0.376052
v -1.126602 -0.150277 0.350886
v -0.600981 -0.155310 0.362391
v -0.600981 -0.000000 0.388276
v -0.600981 0.155310 0.362391
v -1.126602 0.150277 0.350887
v -1.549710 0.135178 0.316373
v -1.577401 -0.000000 0.339382
v -1.549710 -0.135178 0.316373
v 2.210230 0.000000 0.000000
v 2.139565 0.145244 0.000000
v 2.073058 0.135177 0.135177
v 2.139565 0.000000 0.145244
v 1.928611 0.266400 0.000000
v 1.875612 0.248065 0.125111
v 2.073058 -0.135178 0.135177
v 2.139565 -0.145244 0.000000
v 1.875612 -0.248065 0.125111
v 1.928611 -0.266401 0.000000
v 2.073057 -0.135178 -0.135178
v 2.139565 0.000000 -0.145244
v 1.875612 -0.125111 -0.248065
v 1.928611 0.000000 -0.266401
v 1.875612 -0.248065 -0.125111
v 1.768230 -0.210915 -0.210916
v 2.073058 0.135177 -0.135178
v 1.875612 0.248065 -0.125111
v 1.875612 0.125111 -0.248065
v 1.768230 0.210915 -0.210915
v 1.115698 0.376052 0.000000
v 1.108423 0.350886 -0.150277
v 0.567235 0.362391 -0.155310
v 0.567235 0.388276 0.000000
v 1.101149 0.275568 -0.275568
v 0.567235 0.284736 -0.284736
v 0.567235 0.362391 0.155311
v 1.108423 0.350886 0.150277
v 1.549308 0.316373 0.135178
v 1.578405 0.339382 0.000000
v 1.549308 0.316373 -0.135177
v 1.520211 0.248065 -0.248065
v 1.115698 -0.376052 0.000000
v 1.108423 -0.350886 0.150277
v 0.567235 -0.362391 0.155310
v 0.567235 -0.388276 0.000000
v 0.567235 -0.362391 -0.155311
v 1.108423 -0.350886 -0.150277
v 0.567235 -0.284736 -0.284736
v 1.101149 -0.275568 -0.275568
v 1.549308 -0.316373 -0.135178
v 1.578405 -0.339382 0.000000
v 1.520211 -0.248065 -0.248065
v 1.549308 -0.316373 0.135177
v 1.115698 0.000000 -0.376052
v 1.108423 -0.150277 -0.350887
v 0.567235 -0.155310 -0.362391
v 0.567235 0.000000 -0.388276
v 0.567235 0.155310 -0.362391
v 1.108423 0.150277 -0.350886
v 1.549308 0.135178 -0.316373
v 1.578405 0.000000 -0.339382
v 1.549308 -0.135178 -0.316373
vn -0.0229 0.9860 0.1652
vn -0.0000 0.9864 0.1644
vn -0.0240 0.8567 0.5152
vn -0.0000 0.8575 0.5145
vn -0.0229 0.9860 -0.1652
vn -0.0240 0.8567 -0.5152
vn -0.0000 0.9864 -0.1644
vn -0.0000 0.8575 -0.5145
vn -0.0836 0.9809 -0.1757
vn -0.2125 0.9532 -0.2152
vn -0.0907 0.8469 -0.5239
vn -0.2034 0.8035 -0.5594
vn -0.0836 0.9809 0.1757
vn -0.0907 0.8469 0.5239
vn -0.2125 0.9532 0.2152
vn -0.2034 0.8035 0.5594
vn -0.0229 -0.9860 0.1652
vn -0.0240 -0.8567 0.5152
vn 0.0000 -0.9864 0.1644
vn 0.0000 -0.8575 0.5145
vn -0.0836 -0.9809 0.1757
vn -0.2125 -0.9532 0.2152
vn -0.0907 -0.8469 0.5239
vn -0.2034 -0.8035 0.5594
vn -0.0836 -0.9809 -0.1757
vn -0.0907 -0.8469 -0.5239
vn -0.2125 -0.9532 -0.2152
vn -0.2034 -0.8035 -0.5594
vn -0.0229 -0.9860 -0.1652
vn 0.0000 -0.9864 -0.1644
vn -0.0240 -0.8567 -0.5152
vn 0.0000 -0.8575 -0.5145
vn 0.0222 0.1652 0.9860
vn -0.0000 0.1644 0.9864
vn 0.0233 0.5152 0.8568
vn -0.0000 0.5145 0.8575
vn 0.0222 -0.1652 0.9860
vn 0.0233 -0.5152 0.8568
vn -0.0000 -0.1644 0.9864
vn 0.0000 -0.5145 0.8575
vn 0.0802 -0.1758 0.9811
vn 0.2027 -0.2157 0.9552
vn 0.0871 -0.5242 0.8472
vn 0.1939 -0.5605 0.8051
vn 0.0802 0.1758 0.9811
vn 0.0871 0.5241 0.8472
vn 0.2027 0.2157 0.9552
vn 0.1939 0.5605 0.8051
vn -0.0229 0.1652 -0.9860
vn 0.0000 0.1644 -0.9864
vn -0.0240 0.5152 -0.8567
vn -0.0000 0.5145 -0.8575
vn -0.0229 -0.1652 -0.9860
vn -0.0240 -0.5152 -0.8567
vn 0.0000 -0.1644 -0.9864
vn 0.0000 -0.5145 -0.8575
vn -0.0836 -0.1757 -0.9809
vn -0.2125 -0.2152 -0.9532
vn -0.0907 -0.5239 -0.8469
vn -0.2034 -0.5594 -0.8035
vn -0.0836 0.1757 -0.9809
vn -0.0907 0.5239 -0.8469
vn -0.2125 0.2152 -0.9532
vn -0.2034 0.5594 -0.8035
vn -0.8258 0.3988 -0.3988
vn -0.4860 0.3019 -0.8201
vn -0.4861 0.8201 -0.3019
vn -0.3464 0.6633 -0.6633
vn -0.8258 -0.3988 -0.3988
vn -0.4861 -0.8201 -0.3019
vn -0.4860 -0.3019 -0.8201
vn -0.3464 -0.6633 -0.6633
vn -0.8258 -0.3988 0.3988
vn -0.4861 -0.3019 0.8201
vn -0.4860 -0.8201 0.3019
vn -0.3464 -0.6633 0.6633
vn -0.8258 0.3988 0.3988
vn -0.4861 0.8201 0.3019
vn -0.4860 0.3019 0.8201
vn -0.3464 0.6633 0.6633
vn -0.0229 -0.1652 0.9860
vn -0.0240 -0.5152 0.8567
vn -0.0229 0.1652 0.9860
vn -0.0240 0.5152 0.8567
vn -0.0836 0.1757 0.9809
vn -0.2125 0.2152 0.9532
vn -0.0907 0.5239 0.8469
vn -0.2034 0.5594 0.8035
vn -0.0836 -0.1757 0.9809
vn -0.0907 -0.5239 0.8469
vn -0.2125 -0.2152 0.9532
vn -0.2034 -0.5594 0.8035
vn 0.8125 0.4122 0.4122
vn 0.4678 0.3053 0.8294
vn 0.4678 0.8294 0.3053
vn 0.3315 0.6671 0.6671
vn 0.8125 -0.4122 0.4122
vn 0.4678 -0.8294 0.3053
vn 0.4678 -0.3053 0.8294
vn 0.3315 -0.6671 0.6671
vn 0.8125 -0.4122 -0.4122
vn 0.4678 -0.3053 -0.8294
vn 0.4678 -0.8294 -0.3053
vn 0.3315 -0.6671 -0.6671
vn 0.8125 0.4122 -0.4122
vn 0.4678 0.8294 -0.3053
vn 0.4678 0.3053 -0.8294
vn 0.3315 0.6671 -0.6671
vn 0.0222 0.9860 -0.1652
vn 0.0233 0.8568 -0.5152
vn 0.0222 0.9860 0.1652
vn 0.0233 0.8568 0.5152
vn 0.0802 0.9811 0.1758
vn 0.2027 0.9552 0.2157
vn 0.0871 0.8472 0.5242
vn 0.1939 0.8051 0.5605
vn 0.0802 0.9811 -0.1758
vn 0.0871 0.8472 -0.5241
vn 0.2027 0.9552 -0.2157
vn 0.1939 0.8051 -0.5605
vn 0.0222 -0.9860 0.1652
vn 0.0233 -0.8568 0.5152
vn 0.0222 -0.9860 -0.1652
vn 0.0233 -0.8568 -0.5152
vn 0.0802 -0.9811 -0.1758
vn 0.2027 -0.9552 -0.2157
vn 0.0871 -0.8472 -0.5242
vn 0.1939 -0.8051 -0.5605
vn 0.0802 -0.9811 0.1758
vn 0.0871 -0.8472 0.5241
vn 0.2027 -0.9552 0.2157
vn 0.1939 -0.8051 0.5605
vn 0.0222 -0.1652 -0.9860
vn 0.0233 -0.5152 -0.8568
vn 0.0222 0.1652 -0.9860
vn 0.0233 0.5152 -0.8568
vn 0.0802 0.1758 -0.9811
vn 0.2027 0.2157 -0.9552
vn 0.0871 0.5242 -0.8472
vn 0.1939 0.5605 -0.8051
vn 0.0802 -0.1758 -0.9812
vn 0.0871 -0.5242 -0.8472
vn 0.2027 -0.2157 -0.9552
vn 0.1939 -0.5605 -0.8051
usemtl Material.001
s 1
f 1//1 2//1 3//1 4//1
f 4//2 3//2 5//2 6//2
f 2//3 7//3 8//3 3//3
f 3//4 8//4 9//4 5//4
f 1//5 4//5 10//5 11//5
f 11//6 10//6 12//6 13//6
f 4//7 6//7 14//7 10//7
f 10//8 14//8 15//8 12//8
f 1//9 11//9 16//9 17//9
f 17//10 16//10 18//10 19//10
f 11//11 13//11 20//11 16//11
f 16//12 20//12 21//12 18//12
f 1//13 17//13 22//13 2//13
f 2//14 22//14 23//14 7//14
f 17//15 19//15 24//15 22//15
f 22//16 24//16 25//16 23//16
f 26//17 27//17 28//17 29//17
f 29//18 28//18 30//18 31//18
f 27//19 32//19 33//19 28//19
f 28//20 33//20 34//20 30//20
f 26//21 29//21 35//21 36//21
f 36//22 35//22 37//22 38//22
f 29//23 31//23 39//23 35//23
f 35//24 39//24 40//24 37//24
f 26//25 36//25 41//25 42//25
f 42//26 41//26 43//26 44//26
f 36//27 38//27 45//27 41//27
f 41//28 45//28 46//28 43//28
f 26//29 42//29 47//29 27//29
f 27//30 47//30 48//30 32//30
f 42//31 44//31 49//31 47//31
f 47//32 49//32 50//32 48//32
f 51//33 52//33 53//33 54//33
f 54//34 53//34 55//34 56//34
f 52//35 57//35 58//35 53//35
f 53//36 58//36 9//36 55//36
f 51//37 54//37 59//37 60//37
f 60//38 59//38 61//38 62//38
f 54//39 56//39 63//39 59//39
f 59//40 63//40 34//40 61//40
f 51//41 60//41 64//41 65//41
f 65//42 64//42 66//42 67//42
f 60//43 62//43 68//43 64//43
f 64//44 68//44 69//44 66//44
f 51//45 65//45 70//45 52//45
f 52//46 70//46 71//46 57//46
f 65//47 67//47 72//47 70//47
f 70//48 72//48 73//48 71//48
f 74//49 75//49 76//49 77//49
f 77//50 76//50 78//50 79//50
f 75//51 13//51 12//51 76//51
f 76//52 12//52 15//52 78//52
f 74//53 77//53 80//53 81//53
f 81//54 80//54 49//54 44//54
f 77//55 79//55 82//55 80//55
f 80//56 82//56 50//56 49//56
f 74//57 81//57 83//57 84//57
f 84//58 83//58 85//58 86//58
f 81//59 44//59 43//59 83//59
f 83//60 43//60 46//60 85//60
f 74//61 84//61 87//61 75//61
f 75//62 87//62 20//62 13//62
f 84//63 86//63 88//63 87//63
f 87//64 88//64 21//64 20//64
f 89//65 90//65 91//65 92//65
f 92//66 91//66 88//66 86//66
f 90//67 19//67 18//67 91//67
f 91//68 18//68 21//68 88//68
f 89//69 92//69 93//69 94//69
f 94//70 93//70 45//70 38//70
f 92//71 86//71 85//71 93//71
f 93//72 85//72 46//72 45//72
f 89//73 94//73 95//73 96//73
f 96//74 95//74 97//74 98//74
f 94//75 38//75 37//75 95//75
f 95//76 37//76 40//76 97//76
f 89//77 96//77 99//77 90//77
f 90//78 99//78 24//78 19//78
f 96//79 98//79 100//79 99//79
f 99//80 100//80 25//80 24//80
f 101//81 102//81 103//81 104//81
f 104//39 103//39 63//39 56//39
f 102//82 31//82 30//82 103//82
f 103//40 30//40 34//40 63//40
f 101//83 104//83 105//83 106//83
f 106//84 105//84 8//84 7//84
f 104//34 56//34 55//34 105//34
f 105//36 55//36 9//36 8//36
f 101//85 106//85 107//85 108//85
f 108//86 107//86 100//86 98//86
f 106//87 7//87 23//87 107//87
f 107//88 23//88 25//88 100//88
f 101//89 108//89 109//89 102//89
f 102//90 109//90 39//90 31//90
f 108//91 98//91 97//91 109//91
f 109//92 97//92 40//92 39//92
f 110//93 111//93 112//93 113//93
f 113//94 112//94 72//94 67//94
f 111//95 114//95 115//95 112//95
f 112//96 115//96 73//96 72//96
f 110//97 113//97 116//97 117//97
f 117//98 116//98 118//98 119//98
f 113//99 67//99 66//99 116//99
f 116//100 66//100 69//100 118//100
f 110//101 117//101 120//101 121//101
f 121//102 120//102 122//102 123//102
f 117//103 119//103 124//103 120//103
f 120//104 124//104 125//104 122//104
f 110//105 121//105 126//105 111//105
f 111//106 126//106 127//106 114//106
f 121//107 123//107 128//107 126//107
f 126//108 128//108 129//108 127//108
f 130//109 131//109 132//109 133//109
f 133//7 132//7 14//7 6//7
f 131//110 134//110 135//110 132//110
f 132//8 135//8 15//8 14//8
f 130//111 133//111 136//111 137//111
f 137//112 136//112 58//112 57//112
f 133//2 6//2 5//2 136//2
f 136//4 5//4 9//4 58//4
f 130//113 137//113 138//113 139//113
f 139//114 138//114 115//114 114//114
f 137//115 57//115 71//115 138//115
f 138//116 71//116 73//116 115//116
f 130//117 139//117 140//117 131//117
f 131//118 140//118 141//118 134//118
f 139//119 114//119 127//119 140//119
f 140//120 127//120 129//120 141//120
f 142//121 143//121 144//121 145//121
f 145//19 144//19 33//19 32//19
f 143//122 62//122 61//122 144//122
f 144//20 61//20 34//20 33//20
f 142//123 145//123 146//123 147//123
f 147//124 146//124 148//124 149//124
f 145//30 32//30 48//30 146//30
f 146//32 48//32 50//32 148//32
f 142//125 147//125 150//125 151//125
f 151//126 150//126 124//126 119//126
f 147//127 149//127 152//127 150//127
f 150//128 152//128 125//128 124//128
f 142//129 151//129 153//129 143//129
f 143//130 153//130 68//130 62//130
f 151//131 119//131 118//131 153//131
f 153//132 118//132 69//132 68//132
f 154//133 155//133 156//133 157//133
f 157//55 156//55 82//55 79//55
f 155//134 149//134 148//134 156//134
f 156//56 148//56 50//56 82//56
f 154//135 157//135 158//135 159//135
f 159//136 158//136 135//136 134//136
f 157//50 79//50 78//50 158//50
f 158//52 78//52 15//52 135//52
f 154//137 159//137 160//137 161//137
f 161//138 160//138 128//138 123//138
f 159//139 134//139 141//139 160//139
f 160//140 141//140 129//140 128//140
f 154//141 161//141 162//141 155//141
f 155//142 162//142 152//142 149//142
f 161//143 123//143 122//143 162//143
f 162//144 122//144 125//144 152//144
