# Blender v2.77 (sub 0) OBJ File: 'fuego.blend'
# www.blender.org
mtllib fuego.mtl
o Cone
v -5.265884 0.010071 -0.590080
v -5.265884 0.310328 -0.509627
v -5.262177 0.520712 -0.299582
v -5.262177 0.601166 0.000675
v -6.998439 0.013329 0.013809
v -5.262177 0.520712 0.300932
v -5.262177 0.300909 0.520736
v -5.262177 0.000652 0.601189
v -5.262177 -0.299606 0.520736
v -5.262177 -0.519409 0.300932
v -5.262177 -0.599863 0.000675
v -5.262177 -0.519409 -0.299582
v -5.262177 -0.299606 -0.519386
v -4.857692 0.009775 -0.551380
v -4.857692 0.289986 -0.476297
v -4.854233 0.486324 -0.280276
v -4.854233 0.561406 -0.000064
v -4.854233 0.486324 0.280147
v -4.854232 0.281195 0.485276
v -4.854232 0.000984 0.560359
v -4.854232 -0.279228 0.485276
v -4.854232 -0.484357 0.280148
v -4.854232 -0.559440 -0.000064
v -4.854232 -0.484357 -0.280276
v -4.854232 -0.279228 -0.485405
v -4.632586 0.005912 -0.253352
v -4.632586 0.134891 -0.218792
v -4.630993 0.225264 -0.128565
v -4.630993 0.259823 0.000414
v -4.630993 0.225264 0.129393
v -4.630993 0.130844 0.223812
v -4.630993 0.001866 0.258371
v -4.630993 -0.127113 0.223812
v -4.630993 -0.221532 0.129393
v -4.630993 -0.256092 0.000414
v -4.630993 -0.221532 -0.128565
v -4.630993 -0.127113 -0.222984
vt 0.3598 0.2174
vt 0.9055 0.2540
vt 0.3814 0.2974
vt 0.4003 0.3639
vt 0.4256 0.4265
vt 0.4532 0.4845
vt 0.4841 0.5404
vt 0.5200 0.5964
vt 0.5628 0.6539
vt 0.6142 0.7193
vt 0.6802 0.7950
vt 0.7705 0.8889
vt 0.3243 0.0001
vt 0.3365 0.1183
vt 0.4745 0.7100
vt 0.4379 0.6430
vt 0.3459 0.8505
vt 0.3215 0.7817
vt 0.5133 0.7852
vt 0.3744 0.5224
vt 0.3445 0.4630
vt 0.1282 0.0571
vt 0.3141 0.4008
vt 0.4051 0.5814
vt 0.2474 0.2591
vt 0.2015 0.1717
vt 0.5550 0.8763
vt 0.2843 0.3340
vt 0.2706 0.6509
vt 0.2479 0.5886
vt 0.0566 0.2897
vt 0.1293 0.4177
vt 0.3652 0.9227
vt 0.2955 0.7154
vt 0.1685 0.4762
vt 0.3727 0.9999
vt 0.2086 0.5342
vt 0.0001 0.2390
vt 0.1022 0.3476
vt 0.5981 0.9999
vn -0.1171 0.0173 -0.9930
vn -0.9999 0.0066 0.0059
vn -0.1160 0.4968 -0.8600
vn -0.1122 0.8603 -0.4971
vn -0.1106 0.9938 -0.0004
vn -0.1090 0.8609 0.4970
vn -0.1084 0.4968 0.8610
vn -0.1093 -0.0005 0.9940
vn -0.1111 -0.4975 0.8603
vn -0.1136 -0.8607 0.4962
vn -0.1160 -0.9932 -0.0003
vn -0.1176 -0.8600 -0.4965
vn -0.1171 -0.4818 -0.8684
vn 0.4679 -0.4420 0.7653
vn 0.4675 0.0000 0.8839
vn 0.8050 -0.5135 0.2968
vn 0.8046 -0.2966 0.5144
vn 0.4681 -0.7654 0.4416
vn 0.4665 0.7661 0.4421
vn 0.4661 0.8847 -0.0002
vn 0.4676 -0.7654 -0.4421
vn 0.4671 0.7642 -0.4447
vn 0.4670 0.4422 0.7657
vn 0.4618 0.0189 -0.8868
vn 0.4663 -0.4262 -0.7751
vn 0.4679 -0.8838 -0.0002
vn 0.4620 0.4413 -0.7693
vn 0.8038 0.2976 0.5151
vn 0.8036 0.5154 0.2975
vn 0.8052 -0.2810 -0.5221
vn 0.8003 0.2939 -0.5226
vn 0.8054 -0.5927 0.0002
vn 0.8041 0.0003 0.5944
vn 0.8041 0.5125 -0.3013
vn 0.8055 -0.5132 -0.2963
vn 0.8037 0.5950 0.0002
vn 0.7979 0.0161 -0.6025
usemtl Material.003
s 1
f 1/1/1 5/2/2 2/3/3
f 2/3/3 5/2/2 3/4/4
f 3/4/4 5/2/2 4/5/5
f 4/5/5 5/2/2 6/6/6
f 6/6/6 5/2/2 7/7/7
f 7/7/7 5/2/2 8/8/8
f 8/8/8 5/2/2 9/9/9
f 9/9/9 5/2/2 10/10/10
f 10/10/10 5/2/2 11/11/11
f 11/11/11 5/2/2 12/12/12
f 12/13/12 5/2/2 13/14/13
f 13/14/13 5/2/2 1/1/1
f 8/8/8 21/15/14 20/16/15
f 21/15/14 34/17/16 33/18/17
f 11/11/11 22/19/18 10/10/10
f 4/5/5 18/20/19 17/21/20
f 13/14/13 24/22/21 12/13/12
f 3/4/4 17/21/20 16/23/22
f 7/7/7 20/16/15 19/24/23
f 10/10/10 21/15/14 9/9/9
f 13/14/13 14/25/24 25/26/25
f 12/12/12 23/27/26 11/11/11
f 3/4/4 15/28/27 2/3/3
f 6/6/6 19/24/23 18/20/19
f 1/1/1 15/28/27 14/25/24
f 18/20/19 31/29/28 30/30/29
f 14/25/24 37/31/30 25/26/25
f 16/23/22 27/32/31 15/28/27
f 22/19/18 35/33/32 34/17/16
f 19/24/23 32/34/33 31/29/28
f 17/21/20 28/35/34 16/23/22
f 23/27/26 36/36/35 35/33/32
f 20/16/15 33/18/17 32/34/33
f 18/20/19 29/37/36 17/21/20
f 25/26/25 36/38/35 24/22/21
f 14/25/24 27/32/31 26/39/37
f 8/8/8 9/9/9 21/15/14
f 21/15/14 22/19/18 34/17/16
f 11/11/11 23/27/26 22/19/18
f 4/5/5 6/6/6 18/20/19
f 13/14/13 25/26/25 24/22/21
f 3/4/4 4/5/5 17/21/20
f 7/7/7 8/8/8 20/16/15
f 10/10/10 22/19/18 21/15/14
f 13/14/13 1/1/1 14/25/24
f 12/12/12 24/40/21 23/27/26
f 3/4/4 16/23/22 15/28/27
f 6/6/6 7/7/7 19/24/23
f 1/1/1 2/3/3 15/28/27
f 18/20/19 19/24/23 31/29/28
f 14/25/24 26/39/37 37/31/30
f 16/23/22 28/35/34 27/32/31
f 22/19/18 23/27/26 35/33/32
f 19/24/23 20/16/15 32/34/33
f 17/21/20 29/37/36 28/35/34
f 23/27/26 24/40/21 36/36/35
f 20/16/15 21/15/14 33/18/17
f 18/20/19 30/30/29 29/37/36
f 25/26/25 37/31/30 36/38/35
f 14/25/24 15/28/27 27/32/31
